<svg width="747" height="742" viewBox="0 0 747 742" fill="none" xmlns="http://www.w3.org/2000/svg">
<g clip-path="url(#clip0_58_28)">
<path d="M761.669 697.723L7.64001 698.034L7.33453 -42.8277L761.363 -43.1386L761.669 697.723Z" fill="white"/>
<path d="M660.564 327.334C660.626 477.089 537.117 598.54 384.701 598.603C232.284 598.666 108.676 477.316 108.614 327.561C108.552 177.807 232.06 56.3551 384.477 56.2922C536.894 56.2294 660.502 177.579 660.564 327.334Z" fill="#F2E6DC"/>
<path d="M277.488 555.194L232.096 555.213L222.521 437.064L279.027 437.041L277.488 555.194Z" fill="#E2A18D"/>
<path d="M317.889 570.534L226.232 570.572L230.389 535L277.494 534.98C297.492 534.972 317.88 550.889 317.889 570.534Z" fill="#D3BBA3"/>
<path d="M272.747 542.72C272.577 542.72 272.407 542.658 272.277 542.53C272.017 542.276 272.017 541.861 272.276 541.606L279.257 534.743C279.516 534.488 279.937 534.487 280.197 534.742C280.457 534.997 280.457 535.412 280.197 535.667L273.217 542.53C273.087 542.657 272.917 542.72 272.747 542.72Z" fill="#363E44"/>
<path d="M281.521 544.236C281.351 544.237 281.181 544.174 281.051 544.047C280.791 543.789 280.791 543.377 281.051 543.122L288.031 536.259C288.291 536.004 288.711 536.004 288.971 536.259C289.231 536.514 289.231 536.925 288.972 537.183L281.992 544.047C281.862 544.174 281.691 544.236 281.521 544.236Z" fill="#363E44"/>
<path d="M390.806 540.363L346.921 547.979L320.79 447.052L376.482 437.659L390.806 540.363Z" fill="#E2A18D"/>
<path d="M425.974 570.489L338.489 570.525L343.481 534.953L389.751 534.934C409.748 534.926 430.973 550.843 430.981 570.487L425.974 570.489Z" fill="#E6D0BE"/>
<path d="M385.839 542.673C385.667 542.673 385.498 542.611 385.369 542.484C385.109 542.229 385.109 541.814 385.368 541.559L392.348 534.696C392.607 534.441 393.029 534.441 393.289 534.696C393.548 534.95 393.548 535.365 393.289 535.62L386.307 542.483C386.177 542.611 386.008 542.673 385.839 542.673Z" fill="#363E44"/>
<path d="M393.778 543.369C393.606 543.369 393.437 543.307 393.307 543.18C393.048 542.925 393.048 542.51 393.307 542.255L400.286 535.392C400.546 535.137 400.968 535.137 401.227 535.392C401.487 535.646 401.487 536.061 401.228 536.316L394.245 543.179C394.116 543.307 393.947 543.369 393.778 543.369Z" fill="#363E44"/>
<path d="M225.4 243.535C213.703 274.211 205.559 286.735 204.659 321.05C204.27 335.867 207.462 376.752 212.048 419.7C212.813 426.862 212.328 468.045 205.013 522.374C224.412 522.366 267.384 520.342 286.783 520.334C282.459 490.497 280.263 416.305 280.263 416.305C279.733 390.517 279.395 365.684 280.13 346.175C286.072 364.555 294.35 389.85 303.033 415.851C303.033 415.851 308.572 479.453 308.588 516.307C329.279 516.298 373.072 513.601 393.766 513.593C377.428 456.031 383.571 425.84 373.361 395.199C367.403 377.312 329.692 274.522 313.018 242.69C278.565 243.294 256.381 243.324 225.4 243.535Z" fill="#EFBC73"/>
<path d="M221.927 228.444C188.438 279.177 199.307 378.27 202.947 469.483L285.4 470.789L281.216 239.802L221.927 228.444Z" fill="white"/>
<path d="M289.397 247.832L303.117 470.112L388.294 468.067L380.769 397.102L322.676 251.502L289.397 247.832Z" fill="white"/>
<path d="M379.302 172.826C379.302 172.826 387.874 167.133 390.048 165.769C390.772 165.312 392.05 164.499 393.941 163.927C400.947 161.802 405.129 166.355 413.529 167.421C423.064 168.632 429.13 164.013 430.458 166.042C431.382 167.453 429.594 169.827 424.444 172.973C424.444 172.973 424.444 172.976 424.447 172.976C428.635 171.028 434.437 168.628 435.527 170.906C436.641 173.603 430.164 177.209 426.135 179.202C431.011 176.788 434.338 176.94 434.622 178.36C435.073 180.591 431.735 183.328 425.167 186.27C430.279 185.483 431.64 186.042 431.58 187.358C431.472 189.758 426.026 192.075 420.89 193.402C415.109 194.892 410.099 194.079 406.953 193.494C406.953 193.494 406.953 193.494 406.95 193.494C400.419 198.736 390.912 206.504 390.912 206.504L379.302 172.826Z" fill="#E2A18D"/>
<path d="M405.591 168.21C413.189 162.585 414.714 158.975 413.77 157.823C412.179 155.879 403.693 158.073 391.538 164.914C395.369 166.178 401.76 166.946 405.591 168.21Z" fill="#E2A18D"/>
<path d="M412.561 182.5C412.416 182.5 412.272 182.452 412.148 182.358C411.074 181.516 408.135 179.58 404.139 179.836C401.316 180.015 399.199 181.181 397.924 182.126C397.631 182.346 397.215 182.287 396.992 181.999C396.772 181.712 396.829 181.303 397.121 181.084C398.544 180.031 400.902 178.732 404.057 178.532C408.515 178.252 411.782 180.399 412.977 181.335C413.264 181.56 413.312 181.972 413.083 182.254C412.95 182.417 412.757 182.5 412.561 182.5Z" fill="#363E44"/>
<path d="M408.016 167.166C407.949 167.166 407.88 167.154 407.811 167.133C406.709 166.787 405.681 166.414 404.688 166.053C402.634 165.31 400.694 164.605 398.71 164.384C398.345 164.343 398.082 164.017 398.124 163.658C398.166 163.3 398.501 163.042 398.863 163.086C401.005 163.328 403.017 164.056 405.149 164.829C406.13 165.184 407.143 165.551 408.217 165.888C408.567 166.001 408.76 166.368 408.649 166.712C408.558 166.988 408.296 167.166 408.016 167.166Z" fill="#363E44"/>
<path d="M417.519 174.704C416.943 174.704 416.364 174.681 415.791 174.63C415.426 174.598 415.155 174.281 415.188 173.922C415.221 173.564 415.534 173.294 415.908 173.326C417.021 173.424 418.146 173.42 419.256 173.316C420.864 173.161 422.45 172.796 423.967 172.23C424.311 172.099 424.697 172.271 424.827 172.609C424.957 172.943 424.785 173.323 424.441 173.45C422.813 174.059 421.109 174.45 419.383 174.614C418.765 174.674 418.144 174.704 417.519 174.704Z" fill="#363E44"/>
<path d="M419.832 180.594C419.256 180.594 418.677 180.571 418.101 180.521C417.736 180.488 417.465 180.171 417.498 179.813C417.531 179.454 417.853 179.184 418.218 179.22C419.331 179.314 420.459 179.311 421.566 179.207C423.174 179.055 424.76 178.687 426.28 178.12C426.624 177.99 427.007 178.161 427.136 178.499C427.266 178.837 427.095 179.213 426.754 179.341C425.122 179.949 423.421 180.344 421.693 180.508C421.078 180.567 420.457 180.594 419.832 180.594Z" fill="#363E44"/>
<path d="M418.339 188.134C417.763 188.134 417.184 188.111 416.608 188.061C416.243 188.028 415.975 187.711 416.005 187.35C416.038 186.991 416.363 186.727 416.728 186.757C417.838 186.854 418.963 186.85 420.073 186.746C421.681 186.592 423.267 186.226 424.787 185.66C425.131 185.529 425.514 185.701 425.644 186.039C425.776 186.377 425.602 186.753 425.261 186.88C423.629 187.489 421.929 187.881 420.2 188.047C419.585 188.104 418.964 188.134 418.339 188.134Z" fill="#363E44"/>
<path d="M379.311 167.228L353.09 197.425C353.09 197.425 345.235 151.397 294.636 146.593C294.184 146.549 293.747 146.418 293.303 146.333C290.682 149.949 285.35 152.426 279.192 152.428C272.127 152.431 266.301 150.125 264.255 145.628C263.48 145.649 262.706 144.721 262.324 144.736C204.404 147.214 149.297 193.712 154.486 228.403C157.566 248.995 223.064 259.589 223.064 259.589L229.097 245.975L324.307 255.597L324.134 210.994C324.134 210.994 335.945 245.905 361.174 244.902C383.888 244 394.321 207.617 394.321 207.617L379.311 167.228Z" fill="white"/>
<path d="M357.353 209.457C357.067 209.457 356.801 209.277 356.717 208.992C355.542 205.149 354.597 202.986 353.839 201.247C353.293 199.994 352.819 198.909 352.45 197.6C352.35 197.253 352.558 196.891 352.911 196.793C353.264 196.701 353.632 196.903 353.732 197.249C354.076 198.476 354.511 199.472 355.063 200.734C355.833 202.503 356.793 204.704 357.989 208.615C358.095 208.962 357.896 209.327 357.543 209.431C357.48 209.448 357.417 209.457 357.353 209.457Z" fill="#363E44"/>
<path d="M242.567 215.307C242.527 215.307 242.488 215.304 242.447 215.298C234.414 213.861 189.426 205.55 184.198 204.491C183.838 204.42 183.607 204.073 183.68 203.721C183.754 203.368 184.103 203.143 184.466 203.211C189.69 204.266 234.655 212.578 242.685 214.012C243.046 214.077 243.286 214.415 243.22 214.77C243.162 215.088 242.882 215.307 242.567 215.307Z" fill="#363E44"/>
<path d="M293.33 145.95C289.926 149.289 285.259 151.756 279.645 151.758C272.736 151.761 267.455 149.366 264.255 144.623C263.015 144.869 262.324 144.736 260.053 144.737L281.903 251.519L289.74 252.52L299.577 147.51C297.654 146.983 295.107 146.382 293.33 145.95Z" fill="#9E9569"/>
<path d="M270.642 207.653C270.422 207.653 270.207 207.546 270.08 207.351L252.525 180.251C252.328 179.949 252.419 179.543 252.73 179.35C253.039 179.158 253.45 179.246 253.647 179.551L271.202 206.648C271.399 206.953 271.308 207.356 270.997 207.549C270.887 207.62 270.764 207.653 270.642 207.653Z" fill="#363E44"/>
<path d="M274.523 162.032L269.779 162.034C262.898 160.469 260.055 149.455 260.053 144.737L261.069 117.378C261.067 112.66 264.957 108.836 269.758 108.834L274.501 108.832C279.301 108.83 283.194 112.651 283.196 117.369L283.211 153.488C283.213 158.202 279.323 162.03 274.523 162.032Z" fill="#E2A18D"/>
<path d="M304.185 111.404C304.128 111.404 304.071 111.398 304.014 111.383L287.157 107.007C286.802 106.916 286.59 106.557 286.684 106.21C286.778 105.861 287.141 105.653 287.497 105.745L304.354 110.118C304.709 110.212 304.921 110.568 304.827 110.918C304.748 111.211 304.479 111.404 304.185 111.404Z" fill="#8B865C"/>
<path d="M271.787 84.8056C272.76 84.577 282.115 82.5343 288.708 88.1177C293.614 92.2704 294.977 98.2738 295.713 108.681C296.58 120.935 295.356 128.379 292.135 131.258C287.047 135.806 269.014 129.623 261.191 119.882C255.544 112.849 254.679 102.922 258.447 94.7001C262.204 86.4958 271.166 84.951 271.787 84.8056Z" fill="#E2A18D"/>
<path d="M298.92 119.141C298.846 119.141 298.771 119.141 298.696 119.135C297.44 119.064 296.294 118.392 295.38 117.192C295.16 116.905 295.22 116.496 295.514 116.279C295.809 116.06 296.226 116.122 296.445 116.409C296.913 117.026 297.697 117.769 298.774 117.831C299.849 117.89 300.953 117.231 301.845 115.966C302.806 114.602 303.401 112.738 303.52 110.714C303.639 108.69 303.269 106.77 302.475 105.306C301.738 103.949 300.732 103.164 299.644 103.102C298.575 103.049 297.465 103.705 296.572 104.971C295.612 106.334 295.017 108.198 294.897 110.222C294.876 110.581 294.572 110.848 294.194 110.836C293.828 110.816 293.548 110.505 293.569 110.146C293.703 107.885 294.381 105.783 295.479 104.227C296.645 102.57 298.154 101.701 299.721 101.798C301.29 101.89 302.685 102.914 303.649 104.692C304.555 106.363 304.981 108.529 304.848 110.79C304.715 113.048 304.036 115.15 302.939 116.709C301.828 118.283 300.409 119.14 298.92 119.141Z" fill="#8B865C"/>
<path d="M282.732 133.822C282.683 133.822 282.632 133.817 282.582 133.808C275.006 132.092 265.382 126.154 260.669 120.286C260.442 120.001 260.491 119.592 260.779 119.367C261.068 119.144 261.486 119.195 261.713 119.476C266.263 125.14 275.561 130.877 282.88 132.533C283.238 132.613 283.462 132.966 283.379 133.315C283.309 133.618 283.035 133.822 282.732 133.822Z" fill="#363E44"/>
<path d="M274.145 106.85C274.145 106.85 277.377 105.399 281.142 105.641C281.944 105.691 280.016 111.891 279.279 111.488C276.039 109.706 274.145 106.85 274.145 106.85Z" fill="white"/>
<path d="M283.591 106.055C282.77 105.821 281.948 105.697 281.148 105.647C279.483 107.188 278.839 109.414 279.277 111.485C280.014 111.891 280.821 112.24 281.692 112.489C286.385 113.827 291.139 111.694 291.139 111.694C291.139 111.694 288.285 107.389 283.591 106.055Z" fill="#373E44"/>
<path d="M288.186 122.737C287.533 122.737 286.889 122.536 286.361 122.136C285.288 121.324 285.142 120 285.224 119.345C285.269 118.986 285.599 118.728 285.965 118.776C286.329 118.82 286.589 119.146 286.543 119.504C286.539 119.546 286.431 120.542 287.172 121.101C287.77 121.555 288.646 121.539 289.305 121.065C289.601 120.854 290.016 120.917 290.234 121.207C290.45 121.5 290.386 121.906 290.09 122.12C289.52 122.529 288.849 122.737 288.186 122.737Z" fill="#363E44"/>
<path d="M294.724 117.628C294.514 117.628 294.308 117.53 294.179 117.35C293.968 117.053 294.04 116.647 294.341 116.44C295.561 115.598 295.609 115.127 295.594 115.002C295.58 114.875 295.474 114.759 295.197 114.49C294.936 114.232 294.611 113.915 294.297 113.426C293.832 112.703 293.559 111.862 293.485 110.931C293.456 110.573 293.73 110.258 294.097 110.229C294.476 110.202 294.783 110.471 294.811 110.83C294.868 111.547 295.073 112.187 295.421 112.729C295.656 113.094 295.899 113.331 296.135 113.562C296.485 113.905 296.847 114.258 296.916 114.853C297.017 115.728 296.425 116.596 295.105 117.509C294.989 117.589 294.856 117.628 294.724 117.628Z" fill="#363E44"/>
<path d="M292.396 82.8916C285.031 78.6451 277.925 81.6766 277.392 81.9376C271.021 78.2241 263.806 78.7457 260.11 80.9579C253.129 85.1393 250.458 90.6791 246.215 97.7605C243.194 102.8 236.355 108.513 233.27 113.398C229.752 118.974 227.529 131.021 224.972 137.195C223.211 141.451 217.27 149.253 212.46 149.261C213.718 152.775 216.789 156.713 220.433 160.128C221.893 159.92 225.508 158.434 227.154 156.643C230.712 152.765 232.533 144.749 232.89 143.708C233.107 144.736 231.557 155.853 229.849 159.229C228.628 161.642 226.777 163.139 225.197 164.05C227.64 165.806 230.106 167.204 232.293 168.009C240.305 170.954 248.291 173.873 258.205 170.191C246.698 160.268 258.972 147.452 261.019 137.574C262.663 129.64 262.736 114.779 264.958 109.242C266.284 105.94 271.253 108.152 273.181 95.9565C273.69 97.7491 274.2 99.5389 274.709 101.332C277.423 101.736 281.245 101.987 285.688 101.223C286.069 101.158 286.44 101.084 286.81 101.006C287.219 100.002 287.593 98.6235 287.517 96.964C287.378 93.9266 285.824 91.8914 285.28 91.2367C286.05 91.5179 288.374 92.4741 289.916 94.9479C290.988 96.6663 291.242 98.4146 291.216 99.7807C295.823 98.1578 299.171 95.8776 301.107 94.3684C301.103 93.9387 300.098 87.3366 292.396 82.8916Z" fill="#84524D"/>
<path d="M281.024 110.88C280.933 110.88 280.841 110.859 280.752 110.821L266.541 104.553C266.206 104.405 266.057 104.02 266.207 103.691C266.358 103.362 266.749 103.217 267.086 103.362L281.297 109.629C281.632 109.777 281.782 110.163 281.632 110.495C281.52 110.735 281.278 110.88 281.024 110.88Z" fill="#8B865C"/>
<path d="M272.913 108.193C275.296 111.763 274.736 116.264 271.663 118.242C268.59 120.22 264.167 118.927 261.784 115.357C259.402 111.784 259.961 107.285 263.035 105.307C266.108 103.329 270.531 104.62 272.913 108.193Z" fill="#E2A18D"/>
<path d="M265.021 114.873C264.843 114.873 264.665 114.805 264.534 114.665C264.326 114.446 264.135 114.206 263.965 113.951C263.293 112.947 263 111.777 263.139 110.656C263.283 109.498 263.87 108.534 264.792 107.941C265.262 107.639 265.787 107.452 266.353 107.389C266.723 107.342 267.048 107.605 267.09 107.961C267.132 108.32 266.871 108.646 266.506 108.687C266.148 108.726 265.816 108.845 265.521 109.034C264.932 109.414 264.555 110.045 264.459 110.816C264.358 111.628 264.578 112.487 265.078 113.237C265.206 113.429 265.35 113.61 265.507 113.773C265.757 114.037 265.742 114.451 265.474 114.698C265.346 114.816 265.183 114.872 265.021 114.873Z" fill="#363E44"/>
<path d="M286.296 103.14C284.012 103.141 281.92 106.352 281.688 110.263C281.453 114.255 283.228 117.74 285.565 117.872C286.639 117.931 287.745 117.272 288.637 116.007C289.598 114.643 290.192 112.779 290.312 110.755C290.547 106.763 288.771 103.279 286.435 103.143C286.388 103.143 286.342 103.14 286.296 103.14ZM285.712 119.185C285.637 119.185 285.563 119.182 285.488 119.176C282.327 118.996 280.074 115.05 280.361 110.187C280.649 105.327 283.351 101.657 286.512 101.839C289.673 102.022 291.926 105.971 291.639 110.831C291.506 113.089 290.828 115.191 289.73 116.75C288.62 118.327 287.2 119.184 285.712 119.185Z" fill="#8B865C"/>
<path d="M290.989 111.149C290.623 111.149 290.326 110.861 290.324 110.5C290.321 110.138 290.617 109.845 290.984 109.842L294.25 109.82C294.252 109.82 294.254 109.82 294.255 109.82C294.621 109.82 294.918 110.11 294.92 110.468C294.923 110.83 294.627 111.123 294.26 111.127L290.994 111.149C290.992 111.149 290.99 111.149 290.989 111.149Z" fill="#8B865C"/>
<path d="M272.609 235.055C272.491 235.055 272.371 235.025 272.262 234.96C271.949 234.771 271.85 234.371 272.043 234.062L278.558 223.605C278.749 223.299 279.158 223.201 279.472 223.391C279.785 223.577 279.884 223.98 279.692 224.289L273.177 234.744C273.051 234.945 272.833 235.055 272.609 235.055Z" fill="#363E44"/>
<path d="M268.923 232.822C268.805 232.822 268.685 232.79 268.577 232.724C268.263 232.538 268.165 232.135 268.357 231.827L274.872 221.372C275.063 221.064 275.472 220.969 275.786 221.155C276.099 221.345 276.198 221.748 276.006 222.053L269.491 232.508C269.366 232.709 269.148 232.822 268.923 232.822Z" fill="#363E44"/>
<path d="M254.814 257.795C257.422 259.397 260.874 258.619 262.51 256.058L282.087 225.375C282.377 224.922 282.469 224.385 282.347 223.861C282.225 223.339 281.904 222.895 281.441 222.611L275.443 218.915C274.488 218.328 273.225 218.614 272.627 219.55L253.049 250.233C251.414 252.797 252.206 256.187 254.814 257.795ZM257.771 259.936C256.516 259.937 255.247 259.602 254.108 258.901C250.878 256.91 249.898 252.712 251.922 249.54L271.5 218.857C272.487 217.31 274.572 216.838 276.149 217.809L282.147 221.502C282.91 221.973 283.442 222.708 283.644 223.57C283.845 224.432 283.693 225.321 283.213 226.071L263.636 256.754C262.326 258.808 260.073 259.935 257.771 259.936Z" fill="#363E44"/>
<path d="M276.693 218.176L281.574 221.182L303.15 187.369L298.269 184.363L276.693 218.176ZM281.994 222.984L274.859 218.589L297.848 182.562L304.983 186.957L281.994 222.984Z" fill="#363E44"/>
<path d="M348.077 184.106C339.993 204.397 316.698 214.408 296.044 206.466C275.391 198.526 265.202 175.638 273.285 155.35C281.369 135.059 304.665 125.048 325.318 132.99C345.972 140.929 356.161 163.818 348.077 184.106Z" fill="#E6D0BE"/>
<path d="M274.964 186.287C279.283 195.28 286.856 202.232 296.287 205.858C316.565 213.656 339.52 203.79 347.459 183.869C351.303 174.218 351.091 163.675 346.865 154.179C342.638 144.682 334.899 137.375 325.077 133.598C304.799 125.8 281.842 135.663 273.904 155.587C269.904 165.628 270.281 176.531 274.964 186.287ZM310.649 209.835C305.703 209.837 300.679 208.95 295.802 207.073C286.053 203.326 278.225 196.143 273.761 186.842C268.921 176.76 268.531 165.49 272.666 155.11C280.87 134.517 304.597 124.318 325.562 132.379C335.716 136.284 343.714 143.84 348.083 153.656C352.454 163.47 352.67 174.369 348.696 184.346C342.402 200.146 326.963 209.828 310.649 209.835Z" fill="#363E44"/>
<path d="M310.69 200.056C306.862 200.057 303.101 199.357 299.474 197.962C292.904 195.437 287.565 190.935 284.034 184.95C283.85 184.636 283.959 184.236 284.276 184.055C284.595 183.874 285 183.981 285.185 184.295C288.563 190.022 293.672 194.328 299.96 196.744C304.222 198.384 308.679 199.022 313.208 198.644C313.576 198.605 313.899 198.878 313.929 199.239C313.959 199.598 313.688 199.915 313.323 199.945C312.442 200.019 311.565 200.055 310.69 200.056Z" fill="white"/>
<path d="M340.738 173.547C340.714 173.547 340.69 173.544 340.665 173.541C340.3 173.503 340.035 173.183 340.074 172.824C340.66 167.487 339.714 162.091 337.341 157.22C337.181 156.894 337.323 156.503 337.654 156.346C337.986 156.191 338.381 156.328 338.541 156.654C341.019 161.744 342.008 167.383 341.398 172.963C341.359 173.298 341.073 173.547 340.738 173.547Z" fill="white"/>
<path d="M335.074 152.876C334.869 152.877 334.667 152.782 334.537 152.607C331.233 148.166 326.716 144.754 321.476 142.738C317.422 141.181 313.184 140.525 308.869 140.793C308.517 140.808 308.186 140.545 308.163 140.183C308.14 139.822 308.418 139.513 308.785 139.49C313.289 139.212 317.723 139.892 321.961 141.523C327.436 143.628 332.155 147.194 335.611 151.836C335.828 152.129 335.762 152.538 335.466 152.749C335.349 152.835 335.21 152.876 335.074 152.876Z" fill="white"/>
<path d="M282.906 181.91C282.647 181.91 282.4 181.762 282.293 181.513C280.573 177.504 279.738 173.101 279.879 168.774C279.89 168.422 280.185 168.14 280.542 168.14C280.55 168.14 280.557 168.14 280.564 168.143C280.931 168.155 281.22 168.454 281.207 168.815C281.073 172.955 281.873 177.169 283.518 181.003C283.661 181.338 283.502 181.72 283.164 181.86C283.08 181.895 282.992 181.91 282.906 181.91Z" fill="white"/>
<path d="M301.056 164.039C309.71 170.22 310.292 178.052 306.976 181.438C303.66 184.824 295.488 184.694 289.05 176.298C281.582 166.56 279.055 155.045 279.055 155.045C279.055 155.045 291.049 156.889 301.056 164.039Z" fill="#8B865C"/>
<path d="M329.377 176.877C326.371 184.927 320.246 187.119 316.804 185.319C313.359 183.519 311.643 177.189 316.912 170.354C323.026 162.427 331.656 157.913 331.656 157.913C331.656 157.913 332.857 167.57 329.377 176.877Z" fill="#8B865C"/>
<path d="M317.962 155.755C319.786 162.452 316.099 166.679 312.447 167.045C308.793 167.408 304.14 163.99 304.732 157.076C305.42 149.054 309.873 142.153 309.873 142.153C309.873 142.153 315.853 148.013 317.962 155.755Z" fill="#8B865C"/>
<path d="M313.717 196.14C313.711 196.14 313.702 196.14 313.696 196.14C313.328 196.131 313.041 195.829 313.05 195.47C313.178 191.037 314.536 186.307 317.893 178.6C319.662 174.546 325.907 165.445 328.346 162.516C328.578 162.238 328.997 162.196 329.284 162.424C329.568 162.652 329.61 163.064 329.375 163.343C326.975 166.224 320.841 175.153 319.115 179.115C315.83 186.656 314.502 191.253 314.38 195.505C314.371 195.861 314.073 196.14 313.717 196.14Z" fill="#9E9569"/>
<path d="M313.557 196.084C313.279 196.084 313.023 195.912 312.929 195.642C309.958 187.21 305.513 179.696 299.721 173.309C295.65 168.824 290.905 164.891 285.617 161.618C285.306 161.426 285.212 161.023 285.409 160.718C285.604 160.412 286.014 160.32 286.325 160.513C291.719 163.847 296.56 167.861 300.714 172.441C306.623 178.955 311.155 186.616 314.184 195.215C314.305 195.556 314.121 195.929 313.774 196.048C313.702 196.072 313.629 196.083 313.557 196.084Z" fill="#9E9569"/>
<path d="M311.56 180.328C311.551 180.328 311.542 180.328 311.532 180.325C311.168 180.313 310.881 180.008 310.896 179.649C311.391 166.755 311.064 156.054 309.893 146.933C309.848 146.575 310.104 146.249 310.469 146.201C310.849 146.162 311.166 146.411 311.214 146.77C312.394 155.962 312.724 166.734 312.223 179.699C312.211 180.049 311.916 180.328 311.56 180.328Z" fill="#9E9569"/>
<path d="M242.566 214.655C242.566 214.655 286.666 224.618 285.991 230.015C285.669 232.596 278.438 231.265 276.007 230.748C277.759 232.119 281.463 234.672 280.35 237.372C279.043 240.547 273.095 238.43 272.905 238.46C274.829 239.674 277.746 242.183 276.992 244.24C276.011 246.916 272.356 246.879 269.809 246.142C269.975 246.563 272.861 249.359 272.191 250.975C271.449 252.762 268.234 253.089 264.973 252.697C258.79 251.443 229.191 246.052 229.191 246.052L242.566 214.655Z" fill="#E2A18D"/>
<path d="M276.146 231.165C276.026 231.165 275.905 231.133 275.796 231.068C274.558 230.316 273.255 229.643 271.924 229.066C269.534 228.03 267.007 227.284 264.411 226.847C264.049 226.787 263.805 226.45 263.867 226.094C263.929 225.738 264.267 225.498 264.635 225.56C267.339 226.013 269.972 226.791 272.461 227.869C273.848 228.47 275.205 229.171 276.496 229.956C276.808 230.146 276.904 230.549 276.712 230.854C276.586 231.056 276.368 231.165 276.146 231.165Z" fill="#363E44"/>
<path d="M273.08 238.966C272.984 238.967 272.887 238.946 272.794 238.901C272.518 238.771 272.236 238.644 271.946 238.519C269.557 237.483 267.029 236.738 264.433 236.303C264.071 236.241 263.828 235.903 263.89 235.547C263.951 235.192 264.29 234.952 264.657 235.014C267.361 235.469 269.994 236.244 272.483 237.325C272.785 237.455 273.08 237.588 273.368 237.722C273.699 237.879 273.839 238.267 273.681 238.593C273.567 238.827 273.328 238.966 273.08 238.966Z" fill="#363E44"/>
<path d="M269.657 246.691C269.586 246.691 269.513 246.679 269.442 246.655C267.827 246.111 266.148 245.69 264.454 245.407C264.093 245.345 263.849 245.007 263.911 244.651C263.973 244.299 264.313 244.058 264.678 244.117C266.443 244.416 268.191 244.851 269.872 245.416C270.22 245.535 270.405 245.905 270.286 246.249C270.192 246.519 269.933 246.691 269.657 246.691Z" fill="#363E44"/>
<path d="M445.942 104.334C444.05 104.335 442.159 104.694 440.356 105.412C436.668 106.878 433.786 109.667 432.234 113.266C430.682 116.864 430.651 120.841 432.142 124.462C433.637 128.085 436.473 130.92 440.135 132.445C443.797 133.966 447.845 134 451.533 132.532C455.218 131.066 458.103 128.277 459.655 124.678C461.207 121.08 461.238 117.103 459.747 113.482C458.253 109.859 455.413 107.024 451.754 105.502C449.884 104.724 447.911 104.333 445.942 104.334ZM445.948 134.917C443.801 134.918 441.656 134.495 439.617 133.648C435.629 131.987 432.536 128.901 430.912 124.954C429.284 121.007 429.319 116.675 431.009 112.756C432.7 108.835 435.841 105.796 439.858 104.2C443.872 102.604 448.281 102.638 452.272 104.296C456.26 105.957 459.353 109.043 460.98 112.99C462.605 116.937 462.57 121.269 460.88 125.188C459.189 129.109 456.048 132.145 452.031 133.744C450.068 134.524 448.008 134.916 445.948 134.917ZM449.668 145.83L452.274 152.156L464.894 147.136L462.289 140.81L462.69 140.508C464.52 139.138 466.166 137.543 467.592 135.767L467.906 135.376L474.304 138.037L479.613 125.722L473.215 123.058L473.284 122.566C473.591 120.325 473.611 118.052 473.342 115.809L473.281 115.314L479.719 112.754L474.611 100.351L468.17 102.914L467.865 102.517C466.471 100.722 464.847 99.1017 463.04 97.7037L462.642 97.3956L465.351 91.1091L452.814 85.8897L450.105 92.1763L449.601 92.1113C447.324 91.807 445.007 91.7901 442.724 92.0548L442.221 92.1143L439.615 85.7884L426.995 90.8078L429.6 97.1337L429.199 97.4361C427.369 98.806 425.72 100.404 424.297 102.177L423.983 102.568L417.585 99.9035L412.276 112.222L418.671 114.886L418.605 115.378C418.298 117.619 418.278 119.892 418.547 122.135L418.608 122.63L412.17 125.193L417.278 137.593L423.719 135.03L424.024 135.427C425.418 137.222 427.042 138.842 428.849 140.24L429.247 140.548L426.538 146.835L439.075 152.054L441.784 145.768L442.288 145.833C444.565 146.137 446.879 146.154 449.165 145.889L449.668 145.83ZM451.542 153.86L448.812 147.241C446.753 147.443 444.671 147.426 442.614 147.193L439.782 153.767L424.795 147.529L427.631 140.955C426.026 139.667 424.565 138.209 423.28 136.615L416.546 139.294L410.438 124.47L417.172 121.792C416.966 119.768 416.983 117.723 417.224 115.702L410.53 112.916L416.879 98.191L423.573 100.977C424.881 99.4027 426.364 97.9678 427.989 96.7047L425.263 90.0854L440.347 84.0841L443.077 90.7034C445.137 90.501 447.218 90.5149 449.275 90.7512L452.107 84.1771L467.094 90.4149L464.258 96.989C465.863 98.2774 467.324 99.7349 468.609 101.329L475.343 98.6499L481.451 113.473L474.717 116.152C474.923 118.176 474.906 120.221 474.665 122.242L481.359 125.028L475.007 139.753L468.316 136.967C467.005 138.544 465.525 139.976 463.9 141.239L466.626 147.856L451.542 153.86Z" fill="white"/>
<path d="M372.966 94.398C369.523 99.0105 370.539 105.518 375.234 108.9C379.931 112.282 386.548 111.284 389.994 106.672C393.439 102.059 392.42 95.5546 387.725 92.1693C383.031 88.787 376.411 89.7854 372.966 94.398ZM381.469 112.211C379.026 112.212 376.565 111.478 374.447 109.953C369.161 106.144 368.018 98.8185 371.895 93.625C375.774 88.4314 383.229 87.3082 388.512 91.117C393.798 94.9258 394.944 102.251 391.068 107.445C388.74 110.56 385.128 112.209 381.469 112.211ZM373.965 118.455L374.438 118.632C375.974 119.21 377.582 119.597 379.213 119.78L379.717 119.836L380.47 124.664L389.816 123.252L389.06 118.425L389.525 118.223C391.024 117.568 392.438 116.725 393.728 115.72L394.126 115.409L398.133 118.297L403.725 110.809L399.718 107.921L399.899 107.453C400.486 105.947 400.881 104.367 401.067 102.764L401.124 102.269L406.037 101.526L404.601 92.3461L399.691 93.0861L399.483 92.6327C398.815 91.1572 397.958 89.7677 396.935 88.5027L396.618 88.1117L399.56 84.175L391.936 78.6809L388.997 82.6176L388.524 82.44C386.988 81.8598 385.381 81.4752 383.749 81.2892L383.245 81.2331L382.489 76.4059L373.146 77.8174L373.902 82.6446L373.437 82.8463C371.936 83.5048 370.521 84.347 369.234 85.3492L368.836 85.6605L364.829 82.7728L359.237 90.2637L363.244 93.1514L363.063 93.6168C362.476 95.1254 362.081 96.7021 361.895 98.3054L361.835 98.8033L356.925 99.5432L358.358 108.726L363.271 107.983L363.477 108.44C364.147 109.915 365.004 111.305 366.027 112.567L366.341 112.958L363.402 116.894L371.026 122.389L373.965 118.455ZM379.358 126.152L378.556 121.016C377.154 120.824 375.775 120.493 374.439 120.025L371.31 124.217L361.544 117.177L364.673 112.985C363.822 111.874 363.085 110.68 362.476 109.424L357.246 110.214L355.407 98.4503L360.637 97.6599C360.833 96.2848 361.17 94.9274 361.646 93.6173L357.38 90.5431L364.545 80.9474L368.811 84.0217C369.939 83.1826 371.154 82.459 372.433 81.8628L371.628 76.7246L383.601 74.9179L384.406 80.0562C385.808 80.2482 387.187 80.5795 388.52 81.0443L391.652 76.8556L401.418 83.8957L398.289 88.0843C399.143 89.1982 399.88 90.3892 400.486 91.6455L405.713 90.855L407.555 102.619L402.325 103.41C402.13 104.788 401.792 106.142 401.316 107.452L405.582 110.526L398.417 120.125L394.151 117.051C393.02 117.887 391.805 118.61 390.53 119.207L391.331 124.345L379.358 126.152Z" fill="white"/>
<path d="M583.141 374.167C582.939 374.167 582.74 374.079 582.607 373.904C582.39 373.616 582.45 373.204 582.743 372.991C602.61 358.444 626.099 335.088 625.188 306.432C623.975 268.172 581.231 240.849 504.835 229.495C504.473 229.438 504.222 229.107 504.276 228.751C504.33 228.392 504.665 228.146 505.033 228.202C582.139 239.66 625.284 267.43 626.518 306.393C627.447 335.609 603.657 359.306 583.539 374.037C583.419 374.126 583.28 374.167 583.141 374.167Z" fill="#776E42"/>
<path d="M540.361 279.574C550.094 265.34 546.209 250.731 538.351 247.158C530.489 243.584 516.443 250.077 511.899 266.636C507.375 283.117 511.805 303.522 511.805 303.522C511.805 303.522 529.953 294.796 540.361 279.574Z" fill="#8B865C"/>
<path d="M517.838 291.004C517.745 291.004 517.651 290.987 517.561 290.945C517.226 290.791 517.081 290.403 517.238 290.077L542.334 236.787C542.488 236.458 542.883 236.316 543.218 236.467C543.549 236.618 543.694 237.006 543.541 237.335L518.444 290.625C518.33 290.865 518.092 291.004 517.838 291.004Z" fill="#776E42"/>
<path d="M506.654 208.554C518.294 226.167 536.905 228.886 544.777 221.907C552.649 214.927 551.957 196.264 535.161 183.279C518.44 170.353 492.925 165.451 492.925 165.451C492.925 165.451 494.204 189.724 506.654 208.554Z" fill="#9E9569"/>
<path d="M564.879 244.174C564.698 244.175 564.517 244.101 564.388 243.958L504.627 178.894C504.382 178.627 504.403 178.212 504.674 177.972C504.946 177.729 505.368 177.75 505.613 178.019L565.374 243.084C565.618 243.35 565.597 243.762 565.326 244.005C565.199 244.118 565.039 244.174 564.879 244.174Z" fill="#776E42"/>
<path d="M472.074 237.874C487.078 242.757 499.104 235.877 500.367 228.272C501.631 220.668 492.455 210.205 476.647 210.333C460.912 210.461 443.872 219.216 443.872 219.216C443.872 219.216 456.029 232.65 472.074 237.874Z" fill="#9E9569"/>
<path d="M508.539 230.178C508.502 230.178 508.466 230.175 508.43 230.169L456.923 221.833C456.561 221.774 456.317 221.439 456.377 221.084C456.434 220.728 456.775 220.479 457.14 220.544L508.647 228.88C509.009 228.939 509.253 229.274 509.196 229.629C509.142 229.949 508.858 230.178 508.539 230.178Z" fill="#776E42"/>
<path d="M589.741 236.498C588.99 250.397 597.885 258.987 604.876 258.261C611.864 257.538 618.902 247.27 615.054 233.874C611.221 220.537 599.493 208.131 599.493 208.131C599.493 208.131 590.543 221.633 589.741 236.498Z" fill="#9E9569"/>
<path d="M605.82 266.588C605.486 266.588 605.196 266.339 605.16 266.004L600.206 219.845C600.167 219.486 600.432 219.166 600.797 219.127C601.153 219.089 601.491 219.349 601.527 219.708L606.484 265.867C606.523 266.226 606.258 266.546 605.893 266.585C605.869 266.588 605.845 266.588 605.82 266.588Z" fill="#776E42"/>
<path d="M537.951 432.678C537.957 448.841 517.523 587.563 372.391 587.622C242.086 587.676 206.709 448.978 206.702 432.815C206.695 416.652 280.849 419.221 372.321 419.183C463.791 419.145 537.944 416.516 537.951 432.678Z" fill="#B77250"/>
<path d="M537.951 432.678C537.958 448.841 463.809 461.973 372.339 462.011C280.867 462.049 206.709 448.978 206.702 432.815C206.695 416.652 280.842 403.52 372.315 403.483C463.785 403.445 537.944 416.516 537.951 432.678Z" fill="#84524D"/>
<path d="M372.315 404.135C328.114 404.153 286.564 407.211 255.322 412.744C224.842 418.142 207.364 425.457 207.367 432.815C207.37 440.17 224.855 447.471 255.338 452.846C286.585 458.351 328.138 461.374 372.339 461.356C416.54 461.338 458.089 458.28 489.33 452.749C519.809 447.349 537.287 440.034 537.284 432.679C537.281 425.321 519.797 418.02 489.314 412.648C458.068 407.14 416.516 404.116 372.315 404.135ZM372.339 462.663C328.06 462.681 286.426 459.652 255.103 454.132C236.78 450.9 206.042 443.836 206.037 432.815C206.032 421.791 236.766 414.702 255.085 411.458C286.404 405.91 328.035 402.846 372.315 402.828C416.591 402.81 458.227 405.839 489.548 411.362C507.873 414.59 538.61 421.654 538.614 432.678C538.619 443.699 507.888 450.789 489.566 454.035C458.249 459.581 416.616 462.645 372.339 462.663Z" fill="#363E44"/>
<path d="M365.676 403.195L418.822 311.514C414.306 301.881 413.924 290.449 418.775 280.054C427.596 261.149 450.346 252.851 469.583 261.517C488.824 270.183 497.272 292.533 488.449 311.438C483.76 321.489 475.133 328.539 465.191 331.64L438.48 405.355L418.883 460.978C405.003 461.651 389.971 461.669 374.893 461.675C360.615 461.681 346.759 461.366 333.542 460.77L332.556 460.326L365.676 403.195Z" fill="#D3BBA3"/>
<path d="M329.151 460.983C329.039 460.983 328.924 460.956 328.822 460.897C328.502 460.719 328.39 460.319 328.571 460.005L414.668 311.483C410.04 301.377 410.072 289.843 414.764 279.783C423.726 260.579 446.913 252.124 466.455 260.923C485.997 269.725 494.609 292.511 485.647 311.711C481.121 321.413 472.624 328.852 462.301 332.163L416.072 459.758C415.945 460.099 415.565 460.274 415.221 460.156C414.874 460.034 414.693 459.661 414.817 459.32L461.269 331.117L461.583 331.019C471.692 327.868 480.022 320.631 484.44 311.167C488.632 302.183 489.011 292.131 485.511 282.865C482.009 273.6 475.044 266.23 465.901 262.112C447.026 253.611 424.628 261.782 415.974 280.328C411.393 290.142 411.41 301.411 416.019 311.242L416.161 311.545L415.993 311.838L329.73 460.653C329.606 460.864 329.38 460.982 329.151 460.983Z" fill="#363E44"/>
<path d="M372.339 462.663C318.459 462.685 267.737 458.05 236.652 450.263C236.296 450.175 236.081 449.819 236.171 449.469C236.262 449.12 236.625 448.909 236.98 448.998C267.964 456.758 318.564 461.378 372.339 461.356C419.336 461.337 464.274 457.771 495.63 451.567C495.992 451.496 496.342 451.727 496.415 452.08C496.487 452.435 496.255 452.779 495.893 452.85C464.453 459.069 419.418 462.643 372.339 462.663Z" fill="#363E44"/>
<path d="M266.133 572.043C264.854 572.043 263.736 571.982 262.796 571.855C220.033 566.04 188.537 510.471 180.715 474.744C171.909 434.519 173.473 404.048 178.531 370.671C178.586 370.316 178.923 370.073 179.287 370.123C179.651 370.176 179.901 370.508 179.847 370.863C174.81 404.098 173.251 434.435 182.015 474.468C189.758 509.833 220.845 564.831 262.978 570.56C268.705 571.337 281.484 569.577 296.325 565.958C296.68 565.872 297.042 566.083 297.13 566.435C297.219 566.785 297.002 567.141 296.645 567.227C284.045 570.296 272.871 572.04 266.133 572.043Z" fill="#776E42"/>
<path d="M140.35 401.75C149.52 413.553 162.79 414.487 167.958 409.15C173.126 403.814 171.618 390.692 159.066 382.424C146.571 374.196 128.313 372.085 128.313 372.085C128.313 372.085 130.544 389.13 140.35 401.75Z" fill="#8B865C"/>
<path d="M175.107 416.31C174.942 416.31 174.777 416.248 174.648 416.129L137.165 381.084C136.899 380.835 136.888 380.421 137.142 380.16C137.397 379.899 137.817 379.89 138.082 380.139L175.565 415.181C175.831 415.429 175.842 415.844 175.589 416.105C175.458 416.242 175.282 416.31 175.107 416.31Z" fill="#776E42"/>
<path d="M201.708 393.424C187.438 404.999 186.893 420.996 193.779 426.959C200.666 432.924 216.936 430.499 226.646 415.023C236.313 399.618 238.089 377.569 238.089 377.569C238.089 377.569 216.966 381.048 201.708 393.424Z" fill="#9E9569"/>
<path d="M176.841 446.735C176.684 446.735 176.527 446.679 176.401 446.569C176.124 446.332 176.099 445.92 176.341 445.647L227.406 388.728C227.65 388.458 228.071 388.432 228.345 388.672C228.621 388.909 228.647 389.323 228.404 389.593L177.339 446.512C177.208 446.658 177.024 446.735 176.841 446.735Z" fill="#776E42"/>
<path d="M183.325 339.177C174.754 349.662 176.797 361.328 182.694 364.633C188.591 367.941 200.005 363.79 204.679 351.152C209.332 338.57 207.258 322.343 207.258 322.343C207.258 322.343 192.489 327.968 183.325 339.177Z" fill="#9E9569"/>
<path d="M179.189 371.421C179.077 371.421 178.963 371.394 178.859 371.335C178.54 371.154 178.43 370.757 178.613 370.443L201.072 331.912C201.254 331.598 201.662 331.488 201.979 331.669C202.298 331.846 202.409 332.246 202.226 332.561L179.766 371.092C179.643 371.302 179.419 371.421 179.189 371.421Z" fill="#776E42"/>
<path d="M138.167 482.846C154.775 490.864 169.838 484.771 172.539 476.149C175.238 467.527 166.296 453.955 147.945 451.625C129.677 449.306 108.494 456.785 108.494 456.785C108.494 456.785 120.409 474.274 138.167 482.846Z" fill="#9E9569"/>
<path d="M182.404 479.618C182.34 479.618 182.274 479.609 182.208 479.591L123.24 461.764C122.889 461.657 122.692 461.29 122.799 460.946C122.908 460.602 123.277 460.407 123.631 460.513L182.6 478.341C182.951 478.447 183.148 478.815 183.04 479.158C182.952 479.44 182.689 479.618 182.404 479.618Z" fill="#776E42"/>
<path d="M208.218 468.343C195.191 475.87 192.652 488.7 197.423 494.382C202.194 500.066 215.632 500.171 225.494 488.92C235.312 477.723 239.638 460.166 239.638 460.166C239.638 460.166 222.148 460.295 208.218 468.343Z" fill="#8B865C"/>
<path d="M189.991 501.227C189.799 501.227 189.609 501.147 189.478 500.99C189.244 500.712 189.284 500.3 189.568 500.069L229.481 467.721C229.765 467.49 230.184 467.531 230.417 467.807C230.651 468.085 230.611 468.497 230.327 468.728L190.414 501.079C190.29 501.177 190.14 501.227 189.991 501.227Z" fill="#776E42"/>
<path d="M242.375 539.805C242.672 554.648 252.813 563.111 260.192 561.807C267.571 560.503 274.248 549.043 269.097 535.085C263.97 521.191 250.513 508.886 250.513 508.886C250.513 508.886 242.058 523.929 242.375 539.805Z" fill="#8B865C"/>
<path d="M262.044 571.858C261.728 571.858 261.448 571.636 261.39 571.322L252.238 521.285C252.173 520.929 252.414 520.591 252.775 520.526C253.138 520.464 253.482 520.701 253.547 521.053L262.7 571.09C262.764 571.446 262.524 571.784 262.163 571.849C262.123 571.855 262.083 571.858 262.044 571.858Z" fill="#776E42"/>
<path d="M185.717 548.431C197.87 557.257 210.879 554.522 214.33 547.983C217.781 541.442 212.612 529.255 198.213 524.748C183.879 520.264 165.746 523.235 165.746 523.235C165.746 523.235 172.722 538.995 185.717 548.431Z" fill="#8B865C"/>
<path d="M223.04 552.926C222.937 552.926 222.832 552.902 222.734 552.855L176.799 529.456C176.473 529.291 176.346 528.897 176.515 528.574C176.684 528.253 177.085 528.129 177.412 528.295L223.347 551.693C223.673 551.859 223.799 552.253 223.631 552.576C223.513 552.798 223.28 552.926 223.04 552.926Z" fill="#776E42"/>
<path d="M643.743 372.483L629.122 359.319L528.257 359.355L512.304 372.525C512.376 372.54 512.449 372.478 512.521 372.478L512.286 372.478L512.368 572.416L644.04 572.361L643.958 372.423L643.541 372.424C643.608 372.424 643.677 372.498 643.743 372.483Z" fill="#E6D0BE"/>
<path d="M628.014 444.217C628.025 470.781 606.119 492.322 579.085 492.334C552.049 492.345 530.125 470.821 530.114 444.257C530.103 417.696 552.009 396.154 579.045 396.143C606.079 396.132 628.003 417.655 628.014 444.217Z" fill="#F7F1EB"/>
<path d="M591.09 428.235C602.491 434.934 600.161 447.603 593.39 454.52C586.622 461.434 573.47 464.512 566.573 453.277C558.572 440.242 559.298 422.292 559.298 422.292C559.298 422.292 577.906 420.494 591.09 428.235Z" fill="#D3BBA3"/>
<path d="M599.039 470.153C598.762 470.153 598.506 469.984 598.409 469.711C594.776 459.397 589.337 450.204 582.252 442.392C577.271 436.903 571.466 432.09 564.997 428.089C564.69 427.896 564.593 427.493 564.792 427.188C564.985 426.883 565.398 426.791 565.709 426.983C572.282 431.049 578.181 435.939 583.247 441.523C590.45 449.466 595.973 458.804 599.667 469.284C599.787 469.625 599.603 469.998 599.257 470.117C599.184 470.141 599.112 470.153 599.039 470.153Z" fill="#E6D0BE"/>
<path d="M516.358 571.759L646.7 571.705L646.618 372.873L632.739 360.195L531.922 360.008L516.276 372.924L516.358 571.759ZM648.031 573.012L515.029 573.066L514.946 373.043L514.229 372.91L514.946 372.314L514.946 371.825L515.54 371.824L531.436 358.702L531.68 358.702L633.263 358.891L647.362 371.77L647.948 371.77L647.948 372.303L648.554 372.857L647.948 372.985L648.031 573.012Z" fill="#363E44"/>
<path d="M629.587 360.241L526.894 360.283L526.883 333.378L629.576 333.336L629.587 360.241Z" fill="#D87355"/>
<path d="M530.983 359.182L632.343 359.14L632.332 333.539L530.973 333.581L530.983 359.182ZM633.674 360.447L529.654 360.489L529.642 332.274L633.662 332.232L633.674 360.447Z" fill="#363E44"/>
<path d="M601.596 585.181L561.723 585.197L561.684 489.235L601.557 489.219L601.596 585.181Z" fill="#EFBC73"/>
<path d="M603.096 550.961L559.688 550.979L559.675 518.248L603.083 518.23L603.096 550.961Z" fill="#E6D0BE"/>
<path d="M560.376 586.801L602.957 586.784L602.919 494.336L560.338 494.353L560.376 586.801ZM603.622 588.087L559.71 588.105C559.342 588.105 559.046 587.815 559.046 587.454L559.007 493.699C559.007 493.34 559.303 493.047 559.671 493.047L603.582 493.029C603.95 493.029 604.249 493.322 604.249 493.68L604.288 587.435C604.288 587.796 603.99 588.087 603.622 588.087Z" fill="#84524D"/>
<path d="M606.102 495.416L557.141 495.436L557.134 477.831L606.094 477.81L606.102 495.416Z" fill="#9E9569"/>
<path d="M558.652 487.411C558.287 487.411 557.991 487.121 557.988 486.762C557.985 486.4 558.281 486.107 558.648 486.104L604.077 485.836C604.077 485.836 604.077 485.836 604.08 485.836C604.445 485.836 604.744 486.126 604.744 486.485C604.747 486.846 604.452 487.143 604.084 487.143L558.658 487.411C558.655 487.411 558.655 487.411 558.652 487.411Z" fill="#776E42"/>
<path d="M505.836 529.342C498.718 536.427 488.213 537.578 479.469 529.098C472.958 522.785 496.339 494.807 505.243 503.441C513.619 511.564 512.954 522.256 505.836 529.342Z" fill="#D3BBA3"/>
<path d="M503.295 526.88C496.56 533.586 486.303 534.506 479.704 529.231C479.33 528.935 480.472 526.436 480.472 526.436C480.472 526.436 478.066 527.717 477.809 527.424C472.167 521.022 472.916 510.795 479.721 504.018C486.529 497.244 496.928 496.374 503.517 501.83C503.819 502.082 502.547 504.462 502.547 504.462C502.547 504.462 505.071 503.308 505.382 503.669C510.835 510.083 510.034 520.174 503.295 526.88Z" fill="#F7F1EB"/>
<path d="M477.812 527.421C478.072 527.714 478.337 528.002 478.621 528.277C478.971 528.615 479.333 528.929 479.707 529.228L505.376 503.672C505.068 503.311 504.745 502.958 504.395 502.621C504.111 502.342 503.816 502.085 503.514 501.836L477.812 527.421Z" fill="#D3BBA3"/>
<path d="M509.319 521.134L524.305 503.211C528.51 498.183 536.138 497.448 541.255 501.58C546.375 505.712 547.12 513.206 542.918 518.234L527.932 536.157L509.319 521.134Z" fill="#9E9569"/>
<path d="M527.932 536.157L512.943 554.08C508.741 559.108 501.11 559.843 495.993 555.711C490.876 551.583 490.128 544.085 494.333 539.058L509.319 521.134L527.932 536.157Z" fill="#EFBC73"/>
<path d="M537.716 499.605C538.971 500.049 540.172 500.704 541.255 501.58C546.375 505.712 547.12 513.206 542.917 518.234L527.932 536.157L521.735 531.155L536.72 513.231C540.033 509.271 540.269 503.777 537.716 499.605Z" fill="#8B865C"/>
<path d="M506.746 549.078L521.735 531.155L527.932 536.157L512.943 554.08C508.741 559.111 501.11 559.843 495.993 555.711C494.907 554.838 494.023 553.807 493.335 552.687C497.995 554.336 503.433 553.041 506.746 549.078Z" fill="#E0AA63"/>
<path d="M505.926 558.46L486.1 571.054C480.54 574.589 478.93 581.951 482.527 587.417C486.121 592.883 493.617 594.462 499.177 590.931L519.003 578.337L505.926 558.46Z" fill="#9E9569"/>
<path d="M519.003 578.337L538.829 565.743C544.392 562.208 546 554.846 542.406 549.38C538.808 543.914 531.315 542.335 525.752 545.869L505.926 558.46L519.003 578.337Z" fill="#EFBC73"/>
<path d="M480.93 583.74C481.238 585.014 481.764 586.259 482.527 587.417C486.122 592.883 493.617 594.462 499.178 590.931L519.003 578.337L514.651 571.718L494.826 584.312C490.441 587.097 484.861 586.705 480.93 583.74Z" fill="#8B865C"/>
<path d="M534.474 559.124L514.651 571.718L519.003 578.337L538.829 565.743C544.392 562.208 546 554.846 542.405 549.38C541.642 548.222 540.703 547.238 539.645 546.442C540.784 551.18 538.858 556.34 534.474 559.124Z" fill="#E0AA63"/>
<path d="M468.017 529.268L444.434 530.395C437.82 530.709 432.671 536.288 432.99 542.787C433.313 549.289 438.988 554.348 445.605 554.034L469.185 552.907L468.017 529.268Z" fill="#9E9569"/>
<path d="M469.185 552.907L492.764 551.78C499.382 551.463 504.531 545.887 504.208 539.385C503.889 532.887 498.211 527.827 491.596 528.141L468.017 529.268L469.185 552.907Z" fill="#EFBC73"/>
<path d="M433.489 538.819C433.104 540.073 432.923 541.409 432.99 542.787C433.313 549.289 438.988 554.348 445.605 554.034L469.185 552.907L468.795 545.036L445.216 546.163C440.001 546.411 435.376 543.323 433.489 538.819Z" fill="#8B865C"/>
<path d="M492.375 543.909L468.795 545.036L469.185 552.907L492.764 551.78C499.381 551.463 504.531 545.887 504.208 539.385C504.141 538.007 503.83 536.695 503.323 535.486C501.889 540.145 497.59 543.661 492.375 543.909Z" fill="#E0AA63"/>
<path d="M477.338 583.172C467.009 585.951 456.779 581.539 453.351 569.233C450.795 560.072 487.261 546.641 490.753 559.169C494.039 570.959 487.667 580.394 477.338 583.172Z" fill="#D3BBA3"/>
<path d="M476.341 579.599C466.567 582.229 456.687 577.734 453.493 569.476C453.314 569.011 455.703 567.321 455.703 567.321C455.703 567.321 452.81 567.239 452.734 566.839C451.024 558.047 457.218 549.08 467.095 546.421C476.975 543.765 486.954 548.381 490.04 556.799C490.182 557.184 487.736 558.702 487.736 558.702C487.736 558.702 490.668 558.962 490.756 559.453C492.288 568.156 486.118 576.969 476.341 579.599Z" fill="#F7F1EB"/>
<path d="M452.738 566.836C452.816 567.239 452.907 567.642 453.019 568.042C453.155 568.531 453.318 569.008 453.499 569.476L490.75 559.453C490.662 558.962 490.556 558.47 490.42 557.978C490.309 557.578 490.176 557.187 490.037 556.801L452.738 566.836Z" fill="#D3BBA3"/>
<path d="M598.868 528.968L594.15 533.703C594.15 533.703 593.947 584.876 593.948 584.979C593.949 588.589 603.43 591.602 615.12 591.446C637.397 591.149 636.728 584.778 636.728 584.778L636.707 533.685L631.617 528.955C627.173 533.088 602.238 532.523 598.868 528.968Z" fill="#B77250"/>
<path d="M631.855 529.562C631.856 530.84 624.328 531.874 615.041 531.878C605.755 531.882 598.226 530.853 598.226 529.576C598.225 528.302 605.753 527.267 615.04 527.264C624.326 527.26 631.855 528.288 631.855 529.562Z" fill="#84524D"/>
<path d="M592.819 533.283L592.841 586.482C592.842 589.286 601.844 592.281 615.241 592.276C628.491 592.27 637.387 589.17 637.386 586.277C637.386 586.135 637.398 586.025 637.398 586.025L637.373 533.249L628.726 525.358L628.722 514.868L602.12 514.879L602.124 525.384L592.819 533.283ZM615.242 593.583C603.452 593.587 591.513 591.15 591.511 586.483L591.489 532.685L600.794 524.786L600.789 513.572L630.051 513.56L630.056 524.789L638.703 532.68L638.725 586.084C638.722 586.149 638.716 586.206 638.716 586.277C638.718 591.015 626.625 593.578 615.242 593.583Z" fill="#363E44"/>
<path d="M633.29 563.138L633.279 535.663L629.593 536.776L629.605 564.561L633.29 563.138Z" fill="white"/>
<path d="M629.606 567.884L629.613 585.723L633.299 584.614L633.291 566.528L629.606 567.884Z" fill="white"/>
<path d="M610.403 561.354L617.973 561.351L617.951 506.536L610.38 506.539L610.403 561.354ZM618.64 562.658L609.737 562.661C609.372 562.661 609.073 562.368 609.073 562.007L609.05 505.885C609.05 505.523 609.348 505.233 609.713 505.233L618.617 505.229C618.985 505.229 619.28 505.519 619.28 505.881L619.304 562.002C619.304 562.364 619.008 562.657 618.64 562.658Z" fill="#B77250"/>
<path d="M632.039 498.482L596.168 499.442L596.597 514.899L596.612 514.896C596.606 514.949 596.6 515 596.6 515.053C596.673 517.637 604.76 519.518 614.665 519.254C624.57 518.989 632.544 516.677 632.47 514.093C632.47 514.039 632.461 513.989 632.452 513.939L632.467 513.939L632.039 498.482Z" fill="#363E44"/>
<path d="M632.039 498.482C632.109 501.069 624.138 503.377 614.234 503.645C604.329 503.91 596.242 502.029 596.168 499.442C596.098 496.858 604.069 494.546 613.973 494.281C623.878 494.016 631.968 495.897 632.039 498.482Z" fill="#2D353A"/>
<path d="M621.543 499.479L606.704 499.876L605.929 471.946C605.819 467.921 609.051 464.568 613.147 464.457C617.245 464.349 620.655 467.524 620.768 471.548L621.543 499.479Z" fill="#363E44"/>
</g>
<defs>
<clipPath id="clip0_58_28">
<rect width="754.029" height="740.861" fill="white" transform="translate(-8 0.310913) rotate(-0.0236251)"/>
</clipPath>
</defs>
</svg>
